# xmcd
#
# Track frame offsets:
#	150
#	9600
#	39300
#	49725
#	54375
#	59625
#	78375
#	89325
#	99225
#	118650
#	130050
#	156075
#	178125
#	195075
#	215250
#	233850
#
# Disc length: 3414 seconds
#
# Revision: 0
# Processed by: cddbd v1.4PL0 Copyright (c) Steve Scherf et al.
# Submitted via: audiograbber 1.81.03
#
DISCID=cb0d5410
DTITLE=James Brown - Live
DYEAR=1986
DGENRE=
TTITLE0=Give It Up, Or Turn It A Loose
TTITLE1=It압 A Man압, Man압 World
TTITLE2=I Got The Feeling
TTITLE3=I Can앖 Stand It
TTITLE4=Hot Pants
TTITLE5=Try Me
TTITLE6=I Feel Good
TTITLE7=Get Up Off That Thang
TTITLE8=Jam 1980
TTITLE9=Cold Sweat
TTITLE10=Georgia (On My Mind)
TTITLE11=It압 Too Funky In Here
TTITLE12=Gonna Have A Funky Good Time
TTITLE13=Sex Machine
TTITLE14=Bring It On
TTITLE15=You Can앖 Keep A Good Man Down
EXTD=Castle Masters Collection
EXTT0=
EXTT1=
EXTT2=
EXTT3=
EXTT4=
EXTT5=
EXTT6=
EXTT7=
EXTT8=
EXTT9=
EXTT10=
EXTT11=
EXTT12=
EXTT13=
EXTT14=
EXTT15=
PLAYORDER=
